<?xml version="1.0" encoding="UTF-8"?>
<svg version="1.1" xmlns="http://www.w3.org/2000/svg" width="400" height="400">
<path d="M0 0 C132 0 264 0 400 0 C400 132 400 264 400 400 C268 400 136 400 0 400 C0 268 0 136 0 0 Z " fill="#FEFEFE" transform="translate(0,0)"/>
<path d="M0 0 C17.49 0 34.98 0 53 0 C53 35.97 53 71.94 53 109 C65.87 109 78.74 109 92 109 C92 126.49 92 143.98 92 162 C12.8 162 -66.4 162 -148 162 C-148 111.84 -148 61.68 -148 10 C-99.16 10 -50.32 10 0 10 C0 6.7 0 3.4 0 0 Z " fill="#E71D25" transform="translate(228,75)"/>
<path d="M0 0 C31.35 0 62.7 0 95 0 C95 15.18 95 30.36 95 46 C63.65 46 32.3 46 0 46 C0 30.82 0 15.64 0 0 Z " fill="#FEFEFE" transform="translate(133,138)"/>
<path d="M0 0 C0.99 0 1.98 0 3 0 C5.93106917 6.86745385 8.86090801 13.73543149 11.78923416 20.6040554 C13.14942748 23.79439422 14.51002297 26.98456019 15.87158203 30.17431641 C17.44167453 33.85266003 19.0099375 37.53178131 20.578125 41.2109375 C21.30180267 42.90529434 21.30180267 42.90529434 22.0401001 44.63388062 C24.77655269 51.05832201 27.43210248 57.50628385 30 64 C26.7 64 23.4 64 20 64 C18.49451631 60.21048756 16.99654686 56.41804969 15.5 52.625 C15.07074219 51.54476562 14.64148438 50.46453125 14.19921875 49.3515625 C13.79316406 48.3203125 13.38710937 47.2890625 12.96875 46.2265625 C12.40317383 44.79691162 12.40317383 44.79691162 11.82617188 43.33837891 C11 41 11 41 11 39 C3.08 39 -4.84 39 -13 39 C-13.99 42.3 -14.98 45.6 -16 49 C-16.80918071 51.52868972 -17.63976362 54.05072005 -18.5 56.5625 C-19.10328125 58.35880859 -19.10328125 58.35880859 -19.71875 60.19140625 C-20.1415625 61.11824219 -20.564375 62.04507813 -21 63 C-24 64 -24 64 -28 64 C-26.00345685 57.580648 -23.5624501 51.49798953 -20.76171875 45.390625 C-20.35846878 44.5019574 -19.95521881 43.61328979 -19.53974915 42.69769287 C-18.25985829 39.87986627 -16.97376211 37.06492306 -15.6875 34.25 C-14.83618488 32.37778766 -13.9852702 30.50539319 -13.13476562 28.6328125 C-8.7892725 19.07342336 -4.41624395 9.52692867 0 0 Z " fill="#030303" transform="translate(212,246)"/>
<path d="M0 0 C0.99 0 1.98 0 3 0 C6.07956718 7.16239742 9.15712992 14.32565249 12.23219776 21.4899826 C13.66042199 24.81730656 15.08931247 28.14434094 16.51977539 31.47070312 C17.9024636 34.68604096 19.28333656 37.90215289 20.66300011 41.11878967 C21.44107376 42.9315717 22.2209832 44.74356543 23.00093079 46.55554199 C25.47430151 52.32635137 27.86210948 58.09625491 30 64 C26.7 64 23.4 64 20 64 C18.49451631 60.21048756 16.99654686 56.41804969 15.5 52.625 C15.07074219 51.54476562 14.64148438 50.46453125 14.19921875 49.3515625 C13.79316406 48.3203125 13.38710937 47.2890625 12.96875 46.2265625 C12.40317383 44.79691162 12.40317383 44.79691162 11.82617188 43.33837891 C11 41 11 41 11 39 C3.08 39 -4.84 39 -13 39 C-13.99 42.3 -14.98 45.6 -16 49 C-16.76489417 51.52908555 -17.55352795 54.05122135 -18.375 56.5625 C-18.75398437 57.76003906 -19.13296875 58.95757812 -19.5234375 60.19140625 C-21 63 -21 63 -23.5390625 63.90234375 C-25.02522825 63.96131858 -26.51266457 64 -28 64 C-25.33191655 55.00794776 -21.31114381 46.67590209 -17.375 38.1875 C-16.65245686 36.6202837 -15.93045406 35.05281818 -15.20898438 33.48510742 C-14.13625966 31.15416185 -13.06328885 28.82333587 -11.98858643 26.49330139 C-9.12423927 20.28193643 -6.29836914 14.05388569 -3.5 7.8125 C-3.13310059 6.99483154 -2.76620117 6.17716309 -2.38818359 5.3347168 C-1.59113733 3.55691918 -0.79537466 1.77854611 0 0 Z " fill="#030303" transform="translate(151,246)"/>
<path d="M0 0 C4.33283708 1.08320927 5.30664044 1.94986034 8.3125 5.0625 C9.38951172 6.16271484 9.38951172 6.16271484 10.48828125 7.28515625 C12.47905915 9.43693018 14.41712844 11.61258407 16.33984375 13.82421875 C19.88085511 17.89292891 23.54410419 21.83166431 27.25 25.75 C33.56830162 32.43996642 39.78043412 39.21501904 46 46 C46.33 30.82 46.66 15.64 47 0 C48.65 0 50.3 0 52 0 C52 20.79 52 41.58 52 63 C48.66980619 61.3349031 47.3534529 60.59001278 45.01171875 58.0234375 C44.47409912 57.43941162 43.93647949 56.85538574 43.38256836 56.25366211 C42.54350952 55.32372437 42.54350952 55.32372437 41.6875 54.375 C40.81266968 53.41895874 40.81266968 53.41895874 39.92016602 52.44360352 C36.51794554 48.71451142 33.16773592 44.9438833 29.87109375 41.12109375 C26.78473557 37.62236203 23.59494029 34.21905152 20.421875 30.79907227 C17.01367751 27.11854254 13.66924571 23.39316676 10.40234375 19.5859375 C8.9986871 17.99851522 7.49835935 16.49835935 6 15 C5.67 30.84 5.34 46.68 5 63 C3.35 63 1.7 63 0 63 C0 42.21 0 21.42 0 0 Z " fill="#010101" transform="translate(60,247)"/>
<path d="M0 0 C0.79953138 3.28696233 1.09658936 4.71023192 0 8 C-2.5214069 6.78972469 -4.7291035 5.50897111 -7.0625 3.9375 C-12.68059429 0.76309704 -18.67499354 0.32881676 -24.94140625 1.59375 C-31.18452748 3.56436786 -35.74613357 6.20144315 -39 12 C-43.27825003 21.64925791 -43.84815938 32.54159689 -40.93359375 42.7265625 C-38.00744498 49.15292737 -34.55740073 53.24561206 -28 56 C-20.19465043 58.60178319 -12.4297832 57.33832753 -5.05859375 54.0703125 C-2.78858781 52.93729691 -2.78858781 52.93729691 0 51 C0 52.98 0 54.96 0 57 C-10.92631478 62.2203504 -22.26851451 64.07313782 -34 60 C-42.33571599 56.08450772 -48.15368397 49.72895245 -51.3046875 41.0703125 C-53.8467767 29.84513211 -52.80135723 18.91746988 -46.8203125 9.0546875 C-36.21756367 -5.43782717 -15.29194353 -5.34105304 0 0 Z " fill="#030303" transform="translate(299,249)"/>
<path d="M0 0 C2.64 0 5.28 0 8 0 C8 19.14 8 38.28 8 58 C20.375 57.505 20.375 57.505 33 57 C33 58.65 33 60.3 33 62 C22.11 62 11.22 62 0 62 C0 41.54 0 21.08 0 0 Z " fill="#000000" transform="translate(312,247)"/>
<path d="M0 0 C7.20837446 0.11751318 14.41659527 0.24234628 21.62475586 0.37231445 C24.07785149 0.41567602 26.53097753 0.45735019 28.98413086 0.49731445 C32.50644101 0.55498721 36.02859784 0.61869052 39.55078125 0.68359375 C40.65086014 0.70030624 41.75093903 0.71701874 42.88435364 0.73423767 C44.41560127 0.7641555 44.41560127 0.7641555 45.9777832 0.79467773 C46.87713089 0.81022202 47.77647858 0.8257663 48.70307922 0.84178162 C51 1 51 1 54 2 C54.33 37.64 54.66 73.28 55 110 C66.88 110.33 78.76 110.66 91 111 C91 111.33 91 111.66 91 112 C78.13 112 65.26 112 52 112 C52 76.03 52 40.06 52 3 C34.51 3 17.02 3 -1 3 C-0.67 2.01 -0.34 1.02 0 0 Z " fill="#FFE8E6" transform="translate(229,72)"/>
<path d="M0 0 C31.35 0 62.7 0 95 0 C95 15.18 95 30.36 95 46 C63.65 46 32.3 46 0 46 C0 30.82 0 15.64 0 0 Z M2 2 C1.8988308 5.09081465 1.86031442 8.15882555 1.8671875 11.25 C1.86623077 12.17844727 1.86527405 13.10689453 1.86428833 14.06347656 C1.86360645 16.03059965 1.86546128 17.99772496 1.86962891 19.96484375 C1.87497705 22.98703026 1.86968418 26.00906815 1.86328125 29.03125 C1.86394203 30.93750033 1.86522319 32.84375057 1.8671875 34.75 C1.86516327 35.66040039 1.86313904 36.57080078 1.86105347 37.50878906 C1.46108668 41.57663678 1.46108668 41.57663678 3 45 C5.83040672 45.09520906 8.63634993 45.12553631 11.46704102 45.11352539 C12.35476196 45.11367142 13.24248291 45.11381744 14.15710449 45.1139679 C17.10606284 45.11326843 20.05495887 45.10547448 23.00390625 45.09765625 C25.04271917 45.09579219 27.08153254 45.09436823 29.12034607 45.09336853 C34.49784574 45.08954241 39.87531858 45.07971132 45.25280762 45.06866455 C51.69883418 45.05665834 58.1448697 45.05204864 64.59090424 45.04621124 C74.39395484 45.03649962 84.19694653 45.01734372 94 45 C94 30.48 94 15.96 94 1 C77.8505877 0.97093686 77.8505877 0.97093686 61.70117188 0.95117188 C55.11905109 0.94518311 48.53694416 0.93808193 41.95483398 0.92456055 C36.6510344 0.91373275 31.34724965 0.9077234 26.04343987 0.90512276 C24.01514388 0.90326831 21.98684874 0.89964733 19.95855904 0.89426994 C17.12803486 0.88706094 14.29757282 0.886009 11.46704102 0.88647461 C10.61971909 0.88287933 9.77239716 0.87928406 8.8993988 0.87557983 C5.14494156 0.51762955 5.14494156 0.51762955 2 2 Z " fill="#FFE4E7" transform="translate(133,138)"/>
<path d="M0 0 C0.66 0 1.32 0 2 0 C3.50605402 3.28893003 5.00380532 6.58157446 6.5 9.875 C6.92925781 10.81214844 7.35851562 11.74929688 7.80078125 12.71484375 C8.40986328 14.05869141 8.40986328 14.05869141 9.03125 15.4296875 C9.40830078 16.25710449 9.78535156 17.08452148 10.17382812 17.93701172 C11 20 11 20 11 22 C4.4 22 -2.2 22 -9 22 C-6.03 14.74 -3.06 7.48 0 0 Z " fill="#FBFBFB" transform="translate(149,259)"/>
<path d="M0 0 C0.66 0 1.32 0 2 0 C3.50290811 3.47791766 5.00183816 6.95753548 6.5 10.4375 C6.92925781 11.43072266 7.35851562 12.42394531 7.80078125 13.44726562 C8.40986328 14.86362305 8.40986328 14.86362305 9.03125 16.30859375 C9.40830078 17.18314209 9.78535156 18.05769043 10.17382812 18.95874023 C11 21 11 21 11 22 C4.4 22 -2.2 22 -9 22 C-7.68854298 18.70791428 -6.37588366 15.41631699 -5.0625 12.125 C-4.50272461 10.71927734 -4.50272461 10.71927734 -3.93164062 9.28515625 C-3.39506836 7.94130859 -3.39506836 7.94130859 -2.84765625 6.5703125 C-2.51773682 5.74289551 -2.18781738 4.91547852 -1.84790039 4.06298828 C-1 2 -1 2 0 0 Z " fill="#FCFCFC" transform="translate(210,259)"/>
<path d="M0 0 C16.83 0.33 33.66 0.66 51 1 C51.495 1.99 51.495 1.99 52 3 C34.51 3 17.02 3 -1 3 C-0.67 2.01 -0.34 1.02 0 0 Z " fill="#FECFCF" transform="translate(229,72)"/>
<path d="M0 0 C1.32 0.33 2.64 0.66 4 1 C3.67 1.33 3.34 1.66 3 2 C2.87802192 3.38050858 2.82231101 4.76697647 2.79467773 6.15258789 C2.77473251 7.03342545 2.75478729 7.914263 2.73423767 8.8217926 C2.71752518 9.77907761 2.70081268 10.73636261 2.68359375 11.72265625 C2.66281265 12.69786728 2.64203156 13.67307831 2.62062073 14.67784119 C2.55501588 17.8059863 2.49618972 20.93421822 2.4375 24.0625 C2.39432517 26.1777435 2.35071123 28.29297809 2.30664062 30.40820312 C2.19932345 35.60537587 2.0975778 40.80263577 2 46 C1.34 46 0.68 46 0 46 C0 30.82 0 15.64 0 0 Z " fill="#CF272D" transform="translate(228,138)"/>
</svg>
